<svg id="图层_1" data-name="图层 1" xmlns="http://www.w3.org/2000/svg" viewBox="0 0 40 40"><defs><style>.cls-1,.cls-2{fill:#7f7f7f;}.cls-1{fill-rule:evenodd;}</style></defs><title>内页icon0214-40px</title><g id="页面1"><path class="cls-1" d="M10.09,11.5v25A1.5,1.5,0,0,0,11.58,38H36.51A1.5,1.5,0,0,0,38,36.5v-25A1.5,1.5,0,0,0,36.51,10H11.58A1.5,1.5,0,0,0,10.09,11.5ZM34.64,35.25H13.45a.65.65,0,0,1-.65-.66V13.41a.65.65,0,0,1,.65-.66H34.64a.66.66,0,0,1,.66.66V34.59A.66.66,0,0,1,34.64,35.25Z"/></g><path class="cls-2" d="M29.26,22.79h-4v-4a1.22,1.22,0,0,0-2.43,0v4h-4a1.21,1.21,0,1,0,0,2.42h4v4a1.22,1.22,0,0,0,2.43,0v-4h4a1.21,1.21,0,0,0,0-2.42Z"/><path class="cls-1" d="M27,3.44a1.35,1.35,0,0,0-1.35-1.35H3.5A1.5,1.5,0,0,0,2,3.59V25.74a1.34,1.34,0,0,0,1.35,1.35h0A1.34,1.34,0,0,0,4.7,25.74V5.49a.7.7,0,0,1,.7-.7H25.65A1.34,1.34,0,0,0,27,3.44Z"/></svg>