<?xml version="1.0" encoding="UTF-8"?>
<svg width="24px" height="24px" viewBox="0 0 24 24" version="1.1" xmlns="http://www.w3.org/2000/svg" xmlns:xlink="http://www.w3.org/1999/xlink">
    <!-- Generator: Sketch 63.1 (92452) - https://sketch.com -->
    <title>展开</title>
    <desc>Created with Sketch.</desc>
    <g id="页面-1" stroke="none" stroke-width="1" fill="none" fill-rule="evenodd">
        <g id="展开" transform="translate(12.000000, 12.000000) rotate(-90.000000) translate(-12.000000, -12.000000) translate(-0.000000, 0.000000)">
            <circle id="椭圆形" stroke="#D9D9D9" fill="#FFFFFF" fill-rule="nonzero" cx="12" cy="12" r="11.5"></circle>
            <g id="Group-74" transform="translate(12.000000, 12.500000) rotate(90.000000) translate(-12.000000, -12.500000) translate(6.500000, 7.500000)">
                <rect id="Rectangle-37-Copy-12" x="0.549450549" y="0.549450549" width="9.23076923" height="9.23076923"></rect>
                <g id="doubleright" transform="translate(0.500000, 1.500000)" fill="#000000" fill-opacity="0.65" fill-rule="nonzero">
                    <path d="M4.83413462,6.7734375 C4.69801683,6.60396635 4.7250601,6.35606971 4.89453125,6.21995192 L8.33353365,3.45342548 L4.91165865,0.704026442 C4.7421875,0.567908654 4.71514423,0.320012019 4.85126202,0.150540865 C4.98737981,-0.0189302885 5.23527644,-0.0459735577 5.4047476,0.0901442308 L9.20883413,3.1469351 C9.30168269,3.22085337 9.35576923,3.3344351 9.35576923,3.45342548 C9.35576923,3.57331731 9.30168269,3.6859976 9.20883413,3.76081731 L5.38852163,6.83383413 C5.31550481,6.89152644 5.2280649,6.9203726 5.14152644,6.9203726 C5.02614183,6.9203726 4.9125601,6.86989183 4.83413462,6.7734375 Z M0.0901442308,6.7734375 C-0.0459735577,6.60396635 -0.0189302885,6.35606971 0.150540865,6.21995192 L3.58954327,3.45342548 L0.167668269,0.704026442 C-0.00180288462,0.567908654 -0.0288461538,0.320012019 0.107271635,0.150540865 C0.243389423,-0.0189302885 0.491286058,-0.0459735577 0.660757212,0.0901442308 L4.46484375,3.1469351 C4.55769231,3.22085337 4.61177885,3.3344351 4.61177885,3.45342548 C4.61177885,3.57331731 4.55769231,3.6859976 4.46484375,3.76081731 L0.64453125,6.83383413 C0.571514423,6.89152644 0.484074519,6.9203726 0.397536058,6.9203726 C0.282151442,6.9203726 0.168569712,6.86989183 0.0901442308,6.7734375 Z" id="Shape"></path>
                </g>
            </g>
        </g>
    </g>
</svg>