<svg id="图层_1" data-name="图层 1" xmlns="http://www.w3.org/2000/svg" viewBox="0 0 40 40"><defs><style>.cls-1{fill:#7f7f7f;}</style></defs><title>导入</title><path class="cls-1" d="M5.43,16a1.34,1.34,0,0,1,1.34,1.34v16a2.05,2.05,0,0,0,2.05,2.06H33.27a2.05,2.05,0,0,0,2-2.06V8.93a2.05,2.05,0,0,0-2-2H26.61a1.34,1.34,0,0,1,0-2.68h6.66A4.73,4.73,0,0,1,38,8.93V33.37a4.73,4.73,0,0,1-4.73,4.73H8.82A4.73,4.73,0,0,1,4.1,33.37v-16A1.33,1.33,0,0,1,5.43,16Z"/><path class="cls-1" d="M23.11,25.26a1.32,1.32,0,0,1-1,.46,1.35,1.35,0,0,1-1-.46l-7.51-7.5a1.31,1.31,0,0,1-.4-1,1.35,1.35,0,0,1,2.29-.95L20.64,21C19.86,9.4,14.81,4.77,3.34,4.78a1.34,1.34,0,0,1-1.16-2A1.35,1.35,0,0,1,3.34,2.1c13.08,0,19.19,5.75,20,19.13l5.37-5.38a1.34,1.34,0,1,1,1.9,1.89Z"/></svg>