<svg id="图层_1" data-name="图层 1" xmlns="http://www.w3.org/2000/svg" viewBox="0 0 40 40"><defs><style>.cls-1{fill:#7f7f7f;}</style></defs><title>叶子类目</title><path class="cls-1" d="M28.66,11.7H15.35a1.42,1.42,0,0,0,0,2.84H28.66a1.42,1.42,0,0,0,0-2.84Z"/><path class="cls-1" d="M11.32,11.72a1.4,1.4,0,1,0,1.4,1.4A1.4,1.4,0,0,0,11.32,11.72Z"/><path class="cls-1" d="M28.66,19H15.35a1.42,1.42,0,0,0,0,2.84H28.66a1.42,1.42,0,0,0,0-2.84Z"/><circle class="cls-1" cx="11.32" cy="20.46" r="1.4"/><path class="cls-1" d="M28.66,26.39H15.35a1.42,1.42,0,0,0,0,2.84H28.66a1.42,1.42,0,0,0,0-2.84Z"/><circle class="cls-1" cx="11.32" cy="27.81" r="1.4"/><path class="cls-1" d="M7,38a5,5,0,0,1-5-5V20A17.9,17.9,0,0,1,7.27,7.27,18,18,0,0,1,20,2H33a5,5,0,0,1,5,5V20A17.94,17.94,0,0,1,20,38ZM20,4.73A15.28,15.28,0,0,0,4.73,20V32A3.31,3.31,0,0,0,8,35.27H20A15.24,15.24,0,0,0,35.27,20V8A3.31,3.31,0,0,0,32,4.73Z"/></svg>